<svg xmlns="http://www.w3.org/2000/svg" xmlns:xlink="http://www.w3.org/1999/xlink" width="1587" zoomAndPan="magnify" viewBox="0 0 1190.25 1683.749949" height="2245" preserveAspectRatio="xMidYMid meet" version="1.0"><defs><g/><clipPath id="879a85d5cc"><path d="M 1 91 L 910 91 L 910 333.558594 L 1 333.558594 Z M 1 91 " clip-rule="nonzero"/></clipPath><clipPath id="d3fbf6bd08"><path d="M 0.636719 0.101562 L 942.554688 0.101562 L 942.554688 333.558594 L 0.636719 333.558594 Z M 0.636719 0.101562 " clip-rule="nonzero"/></clipPath><clipPath id="10b874f443"><path d="M 37 90 L 910 90 L 910 333.558594 L 37 333.558594 Z M 37 90 " clip-rule="nonzero"/></clipPath><clipPath id="0233cdae21"><rect x="0" width="368" y="0" height="87"/></clipPath><clipPath id="acfcae0b0e"><rect x="0" width="943" y="0" height="334"/></clipPath></defs><g transform="matrix(1, 0, 0, 1, 128, 599)"><g clip-path="url(#acfcae0b0e)"><g clip-path="url(#879a85d5cc)"><path fill="#e5e4da" d="M 38.230469 314.480469 L 19.699219 314.480469 L 19.699219 295.855469 L 1.148438 295.855469 L 1.148438 128.25 L 19.699219 128.25 L 19.699219 109.625 L 38.230469 109.625 L 38.230469 91 L 872.398438 91 L 872.398438 109.625 L 890.929688 109.625 L 890.929688 128.25 L 909.304688 128.25 L 909.480469 295.855469 L 890.929688 295.855469 L 890.929688 314.480469 L 872.398438 314.480469 L 872.398438 333.109375 L 38.230469 333.109375 Z M 38.230469 314.480469 " fill-opacity="1" fill-rule="nonzero"/></g><path fill="#c4c2ad" d="M 872.222656 305.34375 L 890.757812 305.34375 L 890.757812 286.714844 L 909.304688 286.714844 L 909.304688 128.25 L 890.929688 128.25 L 890.929688 109.625 L 872.398438 109.625 L 872.398438 91 L 38.230469 91 L 38.230469 109.625 L 19.699219 109.625 L 19.699219 128.25 L 1.148438 128.25 L 1.148438 286.714844 L 6.90625 286.714844 L 6.90625 295.855469 L 19.699219 295.855469 L 19.699219 305.34375 L 25.441406 305.34375 L 25.441406 314.480469 L 38.230469 314.480469 L 38.230469 323.96875 L 872.222656 323.96875 Z M 859.605469 274.085938 L 841.054688 274.085938 L 841.054688 292.714844 L 56.605469 292.714844 L 56.605469 274.085938 L 38.058594 274.085938 L 38.058594 255.476562 L 19.523438 255.476562 L 19.523438 137.738281 L 38.058594 137.738281 L 38.058594 119.113281 L 56.605469 119.113281 L 56.605469 100.484375 L 841.054688 100.484375 L 841.054688 119.113281 L 859.605469 119.113281 L 859.605469 137.738281 L 878.140625 137.738281 L 878.140625 255.476562 L 859.605469 255.476562 Z M 859.605469 274.085938 " fill-opacity="1" fill-rule="nonzero"/><g clip-path="url(#d3fbf6bd08)"><path fill="#1d1d1b" d="M 896.378906 116.042969 L 896.378906 93.203125 C 940.921875 93.203125 896.929688 93.152344 942.507812 93.152344 L 942.507812 69.238281 C 896.402344 69.238281 942.257812 69.160156 896.332031 69.160156 L 896.332031 46.144531 L 873.382812 46.144531 C 873.382812 7.449219 873.429688 28.542969 873.429688 0.101562 L 849.441406 0.101562 C 849.441406 45.945312 849.359375 0.101562 849.359375 46.050781 L 826.316406 46.050781 L 826.316406 68.90625 C 781.152344 68.90625 826.292969 69.035156 780.199219 69.035156 L 780.199219 90.515625 L 37.765625 90.515625 L 37.765625 109.144531 L 19.230469 109.144531 L 19.230469 127.769531 L 0.683594 127.769531 L 0.683594 296.320312 L 19.230469 296.320312 L 19.230469 314.949219 L 37.765625 314.949219 L 37.765625 333.574219 L 872.878906 333.574219 L 872.878906 314.949219 L 891.410156 314.949219 L 891.410156 296.320312 L 909.960938 296.320312 L 909.960938 127.769531 L 891.410156 127.769531 L 891.410156 116.042969 Z M 850.257812 110.089844 L 853.382812 110.089844 L 853.382812 115.015625 L 850.257812 115.015625 Z M 890.464844 276.746094 L 871.929688 276.746094 L 871.929688 295.375 L 853.382812 295.375 L 853.382812 314 L 57.261719 314 L 57.261719 295.375 L 38.710938 295.375 L 38.710938 276.746094 L 20.179688 276.746094 L 20.179688 147.328125 L 38.710938 147.328125 L 38.710938 128.71875 L 57.261719 128.71875 L 57.261719 110.089844 L 826.363281 110.089844 L 826.363281 115.964844 L 849.3125 115.964844 L 849.3125 161.960938 L 873.207031 161.960938 L 873.207031 147.328125 L 890.464844 147.328125 Z M 890.464844 276.746094 " fill-opacity="1" fill-rule="nonzero"/></g><path fill="#faec31" d="M 872.867188 92.601562 L 872.867188 115.566406 L 872.742188 115.566406 L 872.742188 115.488281 L 849.792969 115.488281 L 849.792969 92.425781 L 826.84375 92.425781 L 826.84375 69.507812 L 849.839844 69.507812 L 849.839844 46.523438 L 849.964844 46.523438 L 849.964844 46.621094 L 872.914062 46.621094 L 872.914062 69.664062 L 895.867188 69.664062 L 895.867188 92.601562 Z M 872.867188 92.601562 " fill-opacity="1" fill-rule="nonzero"/><g clip-path="url(#10b874f443)"><path fill="#b2a63b" d="M 37.753906 90.492188 L 57.238281 90.492188 L 57.238281 110.0625 L 37.753906 110.0625 Z M 167.542969 333.550781 L 187.027344 333.550781 L 187.027344 313.980469 L 167.542969 313.980469 Z M 890.449219 296.304688 L 909.9375 296.304688 L 909.9375 276.730469 L 890.449219 276.730469 Z M 890.449219 296.304688 " fill-opacity="1" fill-rule="nonzero"/></g><g transform="matrix(1, 0, 0, 1, 277, 174)"><g clip-path="url(#0233cdae21)"><g fill="#000000" fill-opacity="1"><g transform="translate(3.415504, 65.0774)"><g><path d="M 18.15625 -48.390625 L 18.15625 -36.296875 L 6.046875 -36.296875 L 6.046875 -48.390625 Z M 6.046875 0 L 6.046875 -12.09375 L 54.453125 -12.09375 L 54.453125 0 Z M 18.15625 -24.203125 L 18.15625 -36.296875 L 54.453125 -36.296875 L 54.453125 -24.203125 Z M 18.15625 -48.390625 L 18.15625 -60.5 L 66.546875 -60.5 L 66.546875 -48.390625 Z M 54.453125 -12.09375 L 54.453125 -24.203125 L 66.546875 -24.203125 L 66.546875 -12.09375 Z M 54.453125 -12.09375 "/></g></g></g><g fill="#000000" fill-opacity="1"><g transform="translate(76.006532, 65.0774)"><g><path d="M 30.25 0 L 30.25 -48.390625 L 6.046875 -48.390625 L 6.046875 -60.5 L 66.546875 -60.5 L 66.546875 -48.390625 L 42.34375 -48.390625 L 42.34375 0 Z M 30.25 0 "/></g></g></g><g fill="#000000" fill-opacity="1"><g transform="translate(148.597559, 65.0774)"><g><path d="M 6.046875 0 L 6.046875 -48.390625 L 18.15625 -48.390625 L 18.15625 -24.203125 L 54.453125 -24.203125 L 54.453125 -48.390625 L 66.546875 -48.390625 L 66.546875 0 L 54.453125 0 L 54.453125 -12.09375 L 18.15625 -12.09375 L 18.15625 0 Z M 18.15625 -48.390625 L 18.15625 -60.5 L 54.453125 -60.5 L 54.453125 -48.390625 Z M 18.15625 -48.390625 "/></g></g></g><g fill="#000000" fill-opacity="1"><g transform="translate(221.188586, 65.0774)"><g><path d="M 6.046875 0 L 6.046875 -60.5 L 54.453125 -60.5 L 54.453125 -48.390625 L 18.15625 -48.390625 L 18.15625 -24.203125 L 54.453125 -24.203125 L 54.453125 -12.09375 L 18.15625 -12.09375 L 18.15625 0 Z M 54.453125 0 L 54.453125 -12.09375 L 66.546875 -12.09375 L 66.546875 0 Z M 54.453125 -24.203125 L 54.453125 -48.390625 L 66.546875 -48.390625 L 66.546875 -24.203125 Z M 54.453125 -24.203125 "/></g></g></g><g fill="#000000" fill-opacity="1"><g transform="translate(293.779613, 65.0774)"><g><path d="M 30.25 0 L 30.25 -48.390625 L 6.046875 -48.390625 L 6.046875 -60.5 L 66.546875 -60.5 L 66.546875 -48.390625 L 42.34375 -48.390625 L 42.34375 0 Z M 30.25 0 "/></g></g></g></g></g></g></g></svg>